<svg width="580" height="489" viewBox="0 0 580 489" fill="none" xmlns="http://www.w3.org/2000/svg">
<line x1="474.992" y1="245.417" x2="506.891" y2="246.557" stroke="white" stroke-width="5" stroke-linecap="round"/>
<path d="M510.483 247.827C510.483 246.446 509.364 245.327 507.983 245.327C506.602 245.327 505.483 246.446 505.483 247.827H510.483ZM510.483 261.004V247.827H505.483V261.004H510.483Z" fill="white"/>
<path d="M289.9 211.625L397.056 219.825L473.393 246.216" stroke="white" stroke-width="5" stroke-linecap="round"/>
<path d="M289.899 227.438L396.704 230.367L472.075 246.875" stroke="white" stroke-width="3" stroke-linecap="round"/>
<path d="M289.241 260.016H507.984" stroke="white" stroke-width="5"/>
<path d="M507.983 259.722C507.983 259.722 507.617 267.118 502.86 270.334C498.103 273.55 322.599 275.932 314.549 348.606C314.549 348.606 310.783 377 289.899 377" stroke="white" stroke-width="5"/>
<path d="M509.165 223.972H527.884V282.365C527.218 287.709 523.129 290.353 518.752 290.345C514.366 290.337 510.09 287.652 509.165 282.309V223.972Z" stroke="white" stroke-width="5"/>
<path d="M515.413 221.949V207.014L518.195 204.659L520.978 207.014V221.949H515.413Z" stroke="white" stroke-width="3"/>
<path d="M503.886 198.825C504.088 198.819 504.287 198.876 504.457 198.986L513.422 204.815C514.23 205.341 513.9 206.594 512.937 206.652L481.983 208.518C481.827 208.528 481.67 208.5 481.527 208.439L465.989 201.746C465.004 201.322 465.286 199.856 466.357 199.828L503.886 198.825L503.859 197.828L503.886 198.825Z" fill="#D9D9D9" stroke="white" stroke-width="2"/>
<path d="M546.909 207.531C546.819 207.551 546.727 207.559 546.635 207.554L525.161 206.384C524.025 206.322 523.858 204.712 524.958 204.419L559.3 195.271C559.497 195.218 559.706 195.227 559.898 195.297L572.504 199.873C573.443 200.214 573.357 201.569 572.383 201.788L546.909 207.531Z" fill="#D9D9D9" stroke="white" stroke-width="2"/>
<line x1="2.5" y1="-2.5" x2="34.4199" y2="-2.5" transform="matrix(-0.999363 0.0356915 0.0356916 0.999363 107.395 247.827)" stroke="white" stroke-width="5" stroke-linecap="round"/>
<path d="M69.3159 247.827C69.3159 246.446 70.4352 245.327 71.8159 245.327C73.1966 245.327 74.3159 246.446 74.3159 247.827H69.3159ZM69.3159 261.004V247.827H74.3159V261.004H69.3159Z" fill="white"/>
<path d="M289.57 211.625L182.743 219.825L106.077 246.216" stroke="white" stroke-width="5" stroke-linecap="round"/>
<path d="M289.899 227.438L182.594 230.357L107.394 246.545" stroke="white" stroke-width="3" stroke-linecap="round"/>
<path d="M290.559 260.016H71.8148" stroke="white" stroke-width="5"/>
<path d="M71.8163 259.722C71.8163 259.722 72.1822 267.118 76.9391 270.334C81.6959 273.55 257.2 275.932 265.25 348.606C265.25 348.606 269.016 377 289.9 377" stroke="white" stroke-width="5"/>
<path d="M70.6333 223.972H51.9142V282.365C52.58 287.709 56.6691 290.353 61.0462 290.345C65.4327 290.337 69.7085 287.652 70.6333 282.309V223.972Z" stroke="white" stroke-width="5"/>
<path d="M64.3857 221.949V207.014L61.6031 204.659L58.8205 207.014V221.949H64.3857Z" stroke="white" stroke-width="3"/>
<path d="M75.9128 198.825C75.7102 198.819 75.5108 198.876 75.3409 198.986L66.3763 204.815C65.5678 205.341 65.8986 206.594 66.8613 206.652L97.8157 208.518C97.9718 208.528 98.1279 208.5 98.2715 208.439L113.81 201.746C114.794 201.322 114.512 199.856 113.441 199.828L75.9128 198.825Z" fill="#D9D9D9" stroke="white" stroke-width="2"/>
<path d="M32.8901 207.531C32.98 207.551 33.0723 207.559 33.1644 207.554L54.6375 206.384C55.7742 206.322 55.9406 204.712 54.8405 204.419L20.4991 195.271C20.3015 195.218 20.0926 195.227 19.9004 195.297L7.29495 199.873C6.35612 200.214 6.44194 201.569 7.41628 201.788L32.8901 207.531Z" fill="#D9D9D9" stroke="white" stroke-width="2"/>
<path d="M77.994 271.55L263.875 348.669" stroke="white" stroke-width="5" stroke-linecap="round"/>
<path d="M502.135 271.55L316.254 348.669" stroke="white" stroke-width="5" stroke-linecap="round"/>
<path d="M46.7061 65.4092C45.6652 65.151 45.7056 63.6579 46.7588 63.4564L54.8634 61.9054C58.7937 61.1533 61.8972 58.1306 62.7527 54.2214L64.6029 45.7663C64.8332 44.714 66.3357 44.7195 66.5582 45.7735L68.3472 54.2464C69.1858 58.2184 72.3426 61.2893 76.3363 62.0181L84.3595 63.4822C85.4179 63.6753 85.4665 65.1747 84.4228 65.436L75.6617 67.6296C71.9461 68.5599 69.0883 71.5308 68.3029 75.2797L66.5319 83.7336C66.312 84.7833 64.8182 84.7975 64.5784 83.7521L62.5697 74.9938C61.727 71.3191 58.8892 68.4308 55.23 67.5233L46.7061 65.4092Z" fill="#F2D56C"/>
<path d="M39.6878 403.427C38.6469 403.169 38.6873 401.676 39.7406 401.475L53.5825 398.826C57.5128 398.074 60.6163 395.051 61.4718 391.142L64.603 376.833C64.8332 375.781 66.3358 375.786 66.5583 376.84L69.5925 391.211C70.4311 395.183 73.5879 398.254 77.5816 398.983L91.3778 401.5C92.4362 401.694 92.4849 403.193 91.4412 403.454L76.8628 407.104C73.1472 408.035 70.2894 411.006 69.5041 414.754L66.5319 428.942C66.312 429.991 64.8182 430.005 64.5785 428.96L61.2447 414.424C60.4019 410.749 57.5641 407.861 53.905 406.954L39.6878 403.427Z" fill="#F2D56C"/>
<path d="M441.797 422.915C440.756 422.657 440.797 421.164 441.85 420.962L449.551 419.489C453.481 418.737 456.585 415.714 457.44 411.805L459.2 403.762C459.43 402.709 460.933 402.715 461.155 403.769L462.857 411.827C463.695 415.799 466.852 418.869 470.846 419.598L478.463 420.988C479.521 421.181 479.57 422.681 478.526 422.942L470.174 425.033C466.459 425.963 463.601 428.934 462.816 432.683L461.129 440.734C460.909 441.783 459.415 441.797 459.176 440.752L457.26 432.4C456.417 428.726 453.58 425.837 449.92 424.93L441.797 422.915Z" fill="#F2D56C"/>
<path d="M84.7598 370.855C83.719 370.597 83.7593 369.104 84.8126 368.903L86.7421 368.533C90.6724 367.781 93.7759 364.759 94.6313 360.849L95.103 358.694C95.3332 357.642 96.8358 357.648 97.0583 358.701L97.507 360.827C98.3456 364.799 101.502 367.869 105.496 368.598L107.306 368.929C108.364 369.122 108.413 370.621 107.369 370.882L104.869 371.508C101.153 372.439 98.2956 375.41 97.5102 379.158L97.0319 381.442C96.812 382.491 95.3182 382.506 95.0785 381.46L94.496 378.92C93.6532 375.246 90.8154 372.357 87.1563 371.45L84.7598 370.855Z" fill="#F2D56C"/>
<path d="M171.614 16.8555C170.573 16.5973 170.613 15.1042 171.667 14.9027L173.596 14.5334C177.526 13.7813 180.63 10.7586 181.485 6.84942L181.957 4.69426C182.187 3.64201 183.69 3.64753 183.912 4.70145L184.361 6.82653C185.2 10.7986 188.356 13.8695 192.35 14.5983L194.16 14.9285C195.218 15.1216 195.267 16.621 194.223 16.8823L191.723 17.5083C188.007 18.4386 185.15 21.4095 184.364 25.1584L183.886 27.4417C183.666 28.4914 182.172 28.5055 181.932 27.4602L181.35 24.9203C180.507 21.2457 177.669 18.3574 174.01 17.4498L171.614 16.8555Z" fill="#F2D56C"/>
<path d="M366.095 452.595L384.138 449.143C388.461 448.315 391.875 444.99 392.816 440.69L396.885 422.096L400.831 440.785C401.754 445.154 405.226 448.532 409.619 449.334L427.642 452.623L408.805 457.339C404.717 458.363 401.574 461.631 400.71 465.754L396.858 484.139L392.554 465.373C391.627 461.331 388.506 458.154 384.481 457.155L366.095 452.595Z" stroke="#F2D56C" stroke-width="2"/>
<path d="M435.557 111.108L444.747 109.27C449.053 108.409 452.434 105.07 453.348 100.776L455 93.0249L456.651 100.776C457.566 105.07 460.947 108.409 465.253 109.27L474.443 111.108L464.897 113.495C460.773 114.526 457.612 117.841 456.778 122.009L455 130.901L453.222 122.009C452.388 117.841 449.227 114.526 445.103 113.495L435.557 111.108Z" stroke="#F2D56C" stroke-width="2"/>
<path d="M91.4981 99.5954L109.541 96.1427C113.864 95.3153 117.278 91.9903 118.219 87.6903L122.288 69.0959L126.234 87.785C127.156 92.1543 130.629 95.5323 135.022 96.3339L153.045 99.6228L134.207 104.339C130.12 105.363 126.977 108.631 126.113 112.754L122.261 131.139L117.957 112.373C117.03 108.331 113.909 105.154 109.884 104.155L91.4981 99.5954Z" stroke="#F2D56C" stroke-width="2"/>
</svg>
